<svg width="84" height="84" viewBox="0 0 84 84" fill="none" xmlns="http://www.w3.org/2000/svg">
<path d="M36.4586 83.334H12.1544C7.36066 83.3294 3.47566 79.4444 3.47106 74.6506V34.234C0.0677645 31.8189 -0.991856 27.2403 1.00438 23.5756C4.75436 16.8756 8.57936 10.2715 12.3419 3.94232C13.8509 1.47148 16.5468 -0.0251793 19.4419 0.000320714C21.2066 0.0182507 22.9231 0.5783 24.3586 1.60482L24.4586 1.66732C26.1753 2.66732 42.7586 12.5381 56.0878 20.4673L67.9169 27.5006L68.4586 27.8215C77.7002 33.284 79.7794 34.5256 79.8961 34.6048C83.2982 37.0136 84.3445 41.5955 82.3252 45.2423C78.6461 51.8131 74.8253 58.4173 70.9878 64.8756C69.4982 67.3198 66.8499 68.8189 63.9878 68.8381C63.4269 68.8384 62.8678 68.7755 62.3211 68.6506C61.8377 68.9381 59.1711 70.6506 55.7919 72.8173C49.7794 76.6715 41.5628 81.9423 40.6128 82.4298C39.331 83.0895 37.8986 83.4013 36.4586 83.334ZM10.4169 45.959V74.6506C10.4169 75.6102 11.1948 76.3881 12.1544 76.3881H28.0836C22.0294 66.1673 16.0878 55.9256 10.4169 45.959ZM16.0753 41.7923C17.7419 44.6548 35.7252 75.6756 35.8753 75.884C36.1121 76.1917 36.4786 76.3718 36.8669 76.3715C37.0717 76.3715 37.2735 76.3217 37.4544 76.2256C38.0169 75.909 54.9294 65.0423 55.0961 64.934C53.7878 64.1631 44.3211 58.5215 34.2961 52.5506L15.9919 41.6673L16.0211 41.7131L16.0628 41.784V41.809L16.0753 41.7923ZM18.0503 7.91732C14.6836 13.334 7.15026 26.784 7.05026 27.0298C6.80316 27.62 7.02236 28.3022 7.56686 28.6381C8.12106 28.9673 63.2086 61.7881 63.7336 61.8715C63.8002 61.8764 63.867 61.8764 63.9336 61.8715C64.3863 61.8731 64.8068 61.6375 65.0419 61.2506C68.4336 55.5548 76.2461 41.8465 76.2669 41.8048C76.5082 41.2122 76.2885 40.5318 75.7461 40.1923C75.2169 39.8756 20.2336 7.20062 19.8794 7.04652C19.7185 6.97872 19.5457 6.94332 19.3711 6.94232C18.9323 6.94472 18.5239 7.16692 18.2836 7.53402L18.2544 7.58402L18.2211 7.63402L18.1711 7.71732V7.73812L18.1086 7.83812L18.0461 7.91732H18.0503ZM23.6878 30.7923C19.8567 30.79 16.7518 27.6845 16.7503 23.8534C16.7487 20.0223 19.8512 16.9143 23.6822 16.909C27.5133 16.9036 30.6244 20.0029 30.6336 23.834C30.629 27.6681 27.5219 30.7752 23.6878 30.7798V30.7923Z" fill="white"/>
</svg>
