<svg width="121" height="121" viewBox="0 0 121 121" fill="none" xmlns="http://www.w3.org/2000/svg">
<rect x="1.5" y="1.5" width="118" height="118" fill="white" stroke="#F9BD77" stroke-width="3"/>
<path d="M43.3334 76.5834H39.1667C39.1667 69.6798 44.7631 64.0834 51.6667 64.0834C58.5702 64.0834 64.1667 69.6798 64.1667 76.5834H60C60 71.981 56.2691 68.25 51.6667 68.25C47.0643 68.25 43.3334 71.981 43.3334 76.5834ZM74.5834 70.3334H70.4167V64.0834H64.1667V59.9167H70.4167V53.6667H74.5834V59.9167H80.8334V64.0834H74.5834V70.3334ZM51.6667 62C47.0643 62 43.3334 58.2691 43.3334 53.6667C43.3334 49.0643 47.0643 45.3334 51.6667 45.3334C56.2691 45.3334 60 49.0643 60 53.6667C59.9943 58.2667 56.2667 61.9943 51.6667 62ZM51.6667 49.5C49.3904 49.5023 47.5373 51.331 47.5047 53.607C47.4721 55.883 49.272 57.764 51.5473 57.8315C53.8225 57.8991 55.7309 56.1282 55.8334 53.8542V54.6875V53.6667C55.8334 51.3655 53.9679 49.5 51.6667 49.5Z" fill="#F9BD77"/>
</svg>
