<svg width="52" height="51" viewBox="0 0 52 51" fill="none" xmlns="http://www.w3.org/2000/svg">
<path d="M42.764 0H8.76398C6.50964 0 4.34763 0.895533 2.75357 2.48959C1.15951 4.08365 0.263977 6.24566 0.263977 8.5L0.263977 42.5C0.263977 44.7543 1.15951 46.9163 2.75357 48.5104C4.34763 50.1045 6.50964 51 8.76398 51H42.764C45.0183 51 47.1803 50.1045 48.7744 48.5104C50.3684 46.9163 51.264 44.7543 51.264 42.5V8.5C51.264 6.24566 50.3684 4.08365 48.7744 2.48959C47.1803 0.895533 45.0183 0 42.764 0V0ZM47.014 42.5C47.014 43.6272 46.5662 44.7082 45.7692 45.5052C44.9721 46.3022 43.8911 46.75 42.764 46.75H8.76398C7.63681 46.75 6.5558 46.3022 5.75877 45.5052C4.96174 44.7082 4.51398 43.6272 4.51398 42.5V8.5C4.51398 7.37283 4.96174 6.29183 5.75877 5.4948C6.5558 4.69777 7.63681 4.25 8.76398 4.25H42.764C43.8911 4.25 44.9721 4.69777 45.7692 5.4948C46.5662 6.29183 47.014 7.37283 47.014 8.5V42.5Z" fill="#233946"/>
<path d="M25.7639 12.75C23.2422 12.75 20.7772 13.4978 18.6804 14.8988C16.5837 16.2998 14.9495 18.291 13.9845 20.6208C13.0195 22.9505 12.767 25.5141 13.2589 27.9874C13.7509 30.4607 14.9652 32.7325 16.7483 34.5156C18.5315 36.2987 20.8033 37.513 23.2765 38.005C25.7498 38.497 28.3134 38.2445 30.6432 37.2795C32.9729 36.3144 34.9642 34.6802 36.3652 32.5835C37.7662 30.4868 38.5139 28.0217 38.5139 25.5C38.5139 22.1185 37.1707 18.8755 34.7796 16.4844C32.3885 14.0933 29.1455 12.75 25.7639 12.75ZM25.7639 34C24.0828 34 22.4394 33.5015 21.0416 32.5675C19.6438 31.6335 18.5543 30.306 17.911 28.7528C17.2676 27.1996 17.0993 25.4906 17.4273 23.8417C17.7552 22.1929 18.5648 20.6783 19.7535 19.4896C20.9423 18.3008 22.4568 17.4913 24.1057 17.1633C25.7545 16.8353 27.4636 17.0037 29.0168 17.647C30.5699 18.2904 31.8974 19.3798 32.8314 20.7777C33.7654 22.1755 34.2639 23.8189 34.2639 25.5C34.2639 27.7543 33.3684 29.9163 31.7744 31.5104C30.1803 33.1045 28.0183 34 25.7639 34Z" fill="#233946"/>
<path d="M39.5764 14.875C41.3368 14.875 42.7639 13.4479 42.7639 11.6875C42.7639 9.92709 41.3368 8.5 39.5764 8.5C37.816 8.5 36.3889 9.92709 36.3889 11.6875C36.3889 13.4479 37.816 14.875 39.5764 14.875Z" fill="#233946"/>
</svg>
