<svg width="547" height="455" viewBox="0 0 547 455" fill="none" xmlns="http://www.w3.org/2000/svg">
<g opacity="0.7">
<path opacity="0.7" d="M345.631 204.803C345.678 190.407 342.229 176.215 335.58 163.444C332.423 157.447 329.543 153.719 327.302 151.432C326.458 150.537 325.354 149.927 324.145 149.689C322.937 149.451 321.684 149.595 320.562 150.103C319.666 150.419 318.856 150.941 318.197 151.627C315.2 154.729 312.492 158.83 310.127 163.196C303.131 176.265 299.5 190.868 299.562 205.689V214.587H293.85V111.19C293.85 89.5183 288.996 68.1358 279.489 49.1521C274.984 40.1654 270.875 34.582 267.712 31.1492C266.945 30.2765 266.002 29.5773 264.943 29.0984C263.885 28.6194 262.737 28.3716 261.575 28.3716C260.413 28.3716 259.264 28.6194 258.206 29.0984C257.148 29.5773 256.204 30.2765 255.438 31.1492C251.157 35.7991 247.296 41.9438 243.92 48.4785C233.923 67.8522 228.844 89.8373 228.844 112.153V214.587H223.907V205.264C223.968 190.443 220.337 175.839 213.342 162.771C210.977 158.41 208.269 154.31 205.271 151.202C204.408 150.294 203.279 149.683 202.047 149.458C200.814 149.233 199.541 149.405 198.413 149.949L198.62 150.062C197.896 150.381 197.241 150.839 196.692 151.409C194.475 153.695 191.596 157.424 188.415 163.421C181.766 176.191 178.317 190.383 178.364 204.779V359.367H195.983L194.061 372.076V410.073H208.464V372.076L206.542 359.367H223.907V218.587H228.844V358.734H242.915L240.893 372.07V410.073H255.302V372.076L253.28 358.74H272.241L270.219 372.076V410.073H284.627V372.076L282.605 358.74H293.839V218.587H299.55V359.579H304.179V359.367H319.486L317.565 372.076V410.073H331.973V372.076L330.052 359.367H345.631V204.803Z" fill="url(#paint0_linear)"/>
</g>
<path d="M211.332 364.667H197.692L200.128 348.117H208.896L211.332 364.667Z" fill="#535461"/>
<g opacity="0.1">
<path opacity="0.1" d="M199.448 354.687H209.576L208.896 350.061H200.128L199.448 354.687Z" fill="black"/>
</g>
<path d="M328.254 364.667H314.615L317.05 348.117H325.819L328.254 364.667Z" fill="#535461"/>
<g opacity="0.1">
<path opacity="0.1" d="M316.371 354.687H326.498L325.819 350.061H317.05L316.371 354.687Z" fill="black"/>
</g>
<path d="M255.668 364.667H242.023L244.458 348.117H253.232L255.668 364.667Z" fill="#535461"/>
<g opacity="0.1">
<path opacity="0.1" d="M243.779 354.687H253.912L253.232 350.061H244.458L243.779 354.687Z" fill="black"/>
</g>
<path d="M283.433 364.667H269.793L272.229 348.117H280.997L283.433 364.667Z" fill="#535461"/>
<g opacity="0.1">
<path opacity="0.1" d="M271.549 354.687H281.683L280.997 350.061H272.229L271.549 354.687Z" fill="black"/>
</g>
<path d="M308.767 211.308H211.332V215.202H308.767V211.308Z" fill="#535461"/>
<path d="M323.832 149.784C323.317 149.216 322.689 148.762 321.988 148.451C321.287 148.14 320.528 147.98 319.761 147.98C318.994 147.98 318.236 148.14 317.535 148.451C316.834 148.762 316.205 149.216 315.691 149.784C312.853 152.803 310.293 156.797 308.052 161.045C301.421 173.82 297.99 188.013 298.054 202.404V352.294H341.173V201.784C341.227 187.787 337.963 173.976 331.648 161.482C328.656 155.645 325.931 152.011 323.832 149.784Z" fill="#E0E0E0"/>
<path d="M200.187 149.784C200.702 149.216 201.33 148.762 202.031 148.451C202.732 148.14 203.49 147.98 204.257 147.98C205.024 147.98 205.783 148.14 206.484 148.451C207.185 148.762 207.813 149.216 208.328 149.784C211.166 152.803 213.726 156.797 215.967 161.045C222.598 173.82 226.028 188.013 225.965 202.404V352.294H182.834V201.784C182.78 187.787 186.044 173.976 192.359 161.482C195.344 155.645 198.07 152.011 200.187 149.784Z" fill="#E0E0E0"/>
<path d="M183.076 204.98L193.305 205.028V217.636H183.076V204.98Z" fill="#535461"/>
<path d="M215.718 204.98L225.947 205.028V217.636H215.718V204.98Z" fill="#535461"/>
<path d="M298.048 204.98L308.282 205.028V217.636H298.048V204.98Z" fill="#535461"/>
<path d="M330.69 204.98L340.925 205.028V217.636H330.69V204.98Z" fill="#535461"/>
<g opacity="0.1">
<path opacity="0.1" d="M215.949 160.85C213.714 156.602 211.148 152.608 208.31 149.589C207.508 148.704 206.439 148.105 205.264 147.884C204.09 147.663 202.876 147.832 201.807 148.366C202.423 148.673 202.979 149.087 203.45 149.589C206.288 152.608 208.848 156.602 211.089 160.85C217.72 173.625 221.151 187.818 221.087 202.209V352.087H225.959V202.227C226.022 187.828 222.587 173.63 215.949 160.85Z" fill="black"/>
</g>
<g opacity="0.1">
<path opacity="0.1" d="M311.93 161.264C314.165 157.016 316.731 153.022 319.569 150.002C320.101 149.431 320.742 148.973 321.455 148.655C320.401 148.194 319.229 148.076 318.104 148.318C316.979 148.56 315.959 149.149 315.188 150.002C312.35 153.022 309.79 157.016 307.549 161.264C300.918 174.039 297.488 188.231 297.551 202.623V352.501H301.938V202.646C301.869 188.247 305.298 174.047 311.93 161.264Z" fill="black"/>
</g>
<path d="M211.332 364.667H197.692V401.665H211.332V364.667Z" fill="url(#paint1_linear)"/>
<path d="M255.662 364.667H242.023V401.665H255.662V364.667Z" fill="url(#paint2_linear)"/>
<path d="M283.433 364.667H269.793V401.665H283.433V364.667Z" fill="url(#paint3_linear)"/>
<path d="M328.254 364.667H314.615V401.665H328.254V364.667Z" fill="url(#paint4_linear)"/>
<path d="M267.41 32.2657C266.698 31.4193 265.809 30.7389 264.805 30.2721C263.802 29.8053 262.708 29.5635 261.601 29.5635C260.495 29.5635 259.401 29.8053 258.398 30.2721C257.394 30.7389 256.505 31.4193 255.792 32.2657C251.742 36.7915 248.106 42.7767 244.89 49.146C235.43 68.0174 230.618 89.4354 230.618 111.155V351.68H292.159V110.186C292.159 89.0809 287.566 68.236 278.561 49.7959C274.298 41.0456 270.408 35.6098 267.41 32.2657Z" fill="#EEEEEE"/>
<path d="M270.514 58.9836H251.411C247.82 58.9836 244.908 61.8935 244.908 65.4829V67.1904C244.908 70.7798 247.82 73.6897 251.411 73.6897H270.514C274.106 73.6897 277.018 70.7798 277.018 67.1904V65.4829C277.018 61.8935 274.106 58.9836 270.514 58.9836Z" fill="#EB008B"/>
<g opacity="0.7">
<path opacity="0.7" d="M404.754 397.624C402.735 385.456 396.201 374.495 386.456 366.926C376.71 359.357 364.469 355.737 352.171 356.785C339.873 357.834 328.422 363.475 320.101 372.585C311.779 381.694 307.199 393.603 307.271 405.937C307.271 406.179 307.271 406.415 307.271 406.658C305.456 406.932 303.66 407.317 301.891 407.81C299.626 398.796 294.613 390.709 287.546 384.669C280.478 378.629 271.707 374.934 262.445 374.096C253.183 373.258 243.89 375.318 235.852 379.992C227.814 384.666 221.429 391.721 217.581 400.182C213.615 398.653 209.449 397.702 205.212 397.358C204.537 393.524 203.403 389.785 201.836 386.22C201.101 374.974 196.15 364.419 187.97 356.66C179.791 348.901 168.986 344.508 157.709 344.359C146.432 344.21 135.514 348.315 127.132 355.855C118.751 363.395 113.522 373.816 112.489 385.039C110.167 389.951 108.684 395.218 108.102 400.619C97.8386 404.886 89.5263 412.809 84.7756 422.852C80.025 432.895 79.1745 444.343 82.3888 454.976H441.612C443.485 448.774 443.989 442.24 443.091 435.823C442.194 429.407 439.915 423.262 436.411 417.81C432.908 412.359 428.264 407.732 422.799 404.247C417.334 400.762 411.178 398.502 404.754 397.624Z" fill="url(#paint5_linear)"/>
</g>
<path d="M161.236 432.601C185.017 432.601 204.296 413.336 204.296 389.57C204.296 365.805 185.017 346.54 161.236 346.54C137.455 346.54 118.176 365.805 118.176 389.57C118.176 413.336 137.455 432.601 161.236 432.601Z" fill="url(#paint6_linear)"/>
<path d="M161.023 452.826C187.064 452.826 208.174 431.73 208.174 405.706C208.174 379.683 187.064 358.587 161.023 358.587C134.982 358.587 113.872 379.683 113.872 405.706C113.872 431.73 134.982 452.826 161.023 452.826Z" fill="url(#paint7_linear)"/>
<path d="M352.643 452.826C378.684 452.826 399.794 431.73 399.794 405.706C399.794 379.683 378.684 358.587 352.643 358.587C326.602 358.587 305.492 379.683 305.492 405.706C305.492 431.73 326.602 452.826 352.643 452.826Z" fill="url(#paint8_linear)"/>
<path d="M350.272 452.826C374.053 452.826 393.332 433.56 393.332 409.795C393.332 386.03 374.053 366.764 350.272 366.764C326.491 366.764 307.212 386.03 307.212 409.795C307.212 433.56 326.491 452.826 350.272 452.826Z" fill="url(#paint9_linear)"/>
<path d="M301.613 417.972C301.62 424.777 300.009 431.486 296.913 437.546C293.817 443.607 289.324 448.846 283.805 452.832H233.296C227.318 448.513 222.549 442.734 219.447 436.046C216.345 429.358 215.013 421.986 215.58 414.637C216.146 407.287 218.591 400.206 222.682 394.071C226.772 387.937 232.37 382.955 238.939 379.603C245.508 376.25 252.829 374.64 260.2 374.926C267.571 375.211 274.745 377.384 281.034 381.235C287.324 385.086 292.519 390.486 296.121 396.919C299.723 403.351 301.612 410.601 301.607 417.972H301.613Z" fill="url(#paint10_linear)"/>
<path d="M355.014 448.956C355.014 450.244 354.957 451.518 354.842 452.778C354.847 452.796 354.847 452.814 354.842 452.832H269.066C268.947 451.555 268.888 450.261 268.888 448.962C268.881 438.665 272.572 428.707 279.291 420.9C286.009 413.093 295.309 407.955 305.498 406.421C307.627 406.101 309.777 405.939 311.93 405.937C313.03 405.937 314.124 405.978 315.206 406.055C322.924 406.645 330.34 409.301 336.676 413.744C343.012 418.188 348.033 424.255 351.212 431.307C351.389 431.697 351.561 432.093 351.721 432.489C353.895 437.707 355.014 443.303 355.014 448.956Z" fill="url(#paint11_linear)"/>
<path d="M436.397 440.347C436.402 444.575 435.781 448.78 434.553 452.826H352.134C350.142 446.209 349.763 439.211 351.029 432.418C351.1 432.046 351.171 431.668 351.254 431.301C353.328 421.681 358.639 413.061 366.301 406.878C373.963 400.696 383.513 397.323 393.361 397.322C394.715 397.322 396.046 397.381 397.364 397.511C397.955 397.559 398.547 397.63 399.138 397.706C409.458 399.11 418.92 404.203 425.771 412.043C432.621 419.883 436.397 429.939 436.397 440.347Z" fill="url(#paint12_linear)"/>
<path d="M171.884 452.832C172.026 452.383 172.15 451.934 172.274 451.479C174.235 444.152 174.224 436.438 172.243 429.118C170.263 421.797 166.382 415.128 160.995 409.787C155.608 404.446 148.904 400.621 141.563 398.7C134.222 396.779 126.503 396.83 119.187 398.847C117.474 399.316 115.794 399.896 114.156 400.584C104.294 404.684 96.3075 412.296 91.7435 421.947C87.1796 431.597 86.3637 442.597 89.454 452.814H171.884V452.832Z" fill="url(#paint13_linear)"/>
<g opacity="0.7">
<path opacity="0.7" d="M420.032 364.33C424.394 364.33 427.931 360.796 427.931 356.436C427.931 352.077 424.394 348.542 420.032 348.542C415.67 348.542 412.133 352.077 412.133 356.436C412.133 360.796 415.67 364.33 420.032 364.33Z" fill="url(#paint14_linear)"/>
</g>
<path d="M420.032 363.751C424.074 363.751 427.352 360.476 427.352 356.436C427.352 352.396 424.074 349.121 420.032 349.121C415.99 349.121 412.712 352.396 412.712 356.436C412.712 360.476 415.99 363.751 420.032 363.751Z" fill="url(#paint15_linear)"/>
<g opacity="0.7">
<path opacity="0.7" d="M456.204 441.21C460.961 441.21 464.818 437.356 464.818 432.601C464.818 427.847 460.961 423.993 456.204 423.993C451.446 423.993 447.59 427.847 447.59 432.601C447.59 437.356 451.446 441.21 456.204 441.21Z" fill="url(#paint16_linear)"/>
</g>
<path d="M456.204 440.779C460.723 440.779 464.387 437.117 464.387 432.601C464.387 428.085 460.723 424.424 456.204 424.424C451.685 424.424 448.021 428.085 448.021 432.601C448.021 437.117 451.685 440.779 456.204 440.779Z" fill="url(#paint17_linear)"/>
<g opacity="0.7">
<path opacity="0.7" d="M87.6035 393.003C92.8312 393.003 97.0691 388.768 97.0691 383.544C97.0691 378.32 92.8312 374.084 87.6035 374.084C82.3757 374.084 78.1378 378.32 78.1378 383.544C78.1378 388.768 82.3757 393.003 87.6035 393.003Z" fill="url(#paint18_linear)"/>
</g>
<path d="M87.6035 392.578C92.5961 392.578 96.6435 388.533 96.6435 383.544C96.6435 378.555 92.5961 374.51 87.6035 374.51C82.6108 374.51 78.5635 378.555 78.5635 383.544C78.5635 388.533 82.6108 392.578 87.6035 392.578Z" fill="url(#paint19_linear)"/>
<g opacity="0.4">
<path opacity="0.4" d="M444.208 10.3219C442.109 7.55121 439.481 5.22541 436.474 3.47996C433.025 1.49931 429.167 0.336989 425.197 0.0826939C421.228 -0.171601 417.252 0.488927 413.579 2.01331C409.905 3.53768 406.631 5.88516 404.009 8.87459C401.387 11.864 399.487 15.4155 398.456 19.2549C397.425 23.0944 397.291 27.1192 398.063 31.0187C398.836 34.9183 400.495 38.5883 402.912 41.7457C405.328 44.903 408.439 47.4633 412.003 49.2289C415.567 50.9945 419.489 51.9183 423.467 51.9288C424.017 51.9288 424.567 51.9288 425.111 51.8757C429.791 51.5806 434.304 50.0243 438.17 47.372C442.036 44.7197 445.111 41.0704 447.068 36.8119C449.025 32.5533 449.792 27.8445 449.286 23.1855C448.78 18.5266 447.021 14.0915 444.196 10.3514L444.208 10.3219Z" fill="url(#paint20_linear)"/>
</g>
<path opacity="0.2" d="M448.021 25.9498C448.022 32.1858 445.645 38.1878 441.375 42.735C437.105 47.2823 431.262 50.0332 425.034 50.4283C424.52 50.4637 423.999 50.4815 423.479 50.4815C419.716 50.4792 416.003 49.6122 412.629 47.9473C409.254 46.2825 406.308 43.8644 404.018 40.8801C401.728 37.8957 400.156 34.4251 399.422 30.7365C398.688 27.0478 398.814 23.24 399.788 19.6074C400.762 15.9748 402.559 12.6147 405.04 9.78692C407.521 6.95913 410.619 4.73938 414.096 3.29929C417.572 1.8592 421.333 1.23735 425.089 1.4818C428.844 1.72626 432.493 2.83048 435.753 4.70909C438.596 6.35925 441.083 8.55856 443.067 11.1788C446.289 15.4292 448.029 20.6174 448.021 25.9498Z" fill="#F2767B"/>
<path opacity="0.05" d="M417.437 10.393C416.169 10.9396 414.945 11.5836 413.777 12.3192C412.997 12.7516 412.327 13.3581 411.82 14.0917C411.572 14.4596 411.436 14.891 411.428 15.3343C411.419 15.7776 411.539 16.2139 411.772 16.5909C412.364 17.4063 413.546 17.5363 414.534 17.5894C415.441 17.782 416.383 17.7304 417.264 17.4397C418.145 17.149 418.933 16.6298 419.547 15.9351L421.658 14.0208C422.391 13.359 423.195 12.4432 422.876 11.5097C422.633 10.7948 421.829 10.4462 421.102 10.328C419.288 9.97122 417.406 10.3019 415.822 11.2556" fill="#F55F44"/>
<path opacity="0.05" d="M408.621 36.9218C409.333 36.9218 409.91 36.3451 409.91 35.6337C409.91 34.9224 409.333 34.3457 408.621 34.3457C407.909 34.3457 407.332 34.9224 407.332 35.6337C407.332 36.3451 407.909 36.9218 408.621 36.9218Z" fill="#F55F44"/>
<path opacity="0.05" d="M434.89 32.1889C437.505 32.1889 439.626 30.07 439.626 27.4563C439.626 24.8425 437.505 22.7236 434.89 22.7236C432.274 22.7236 430.154 24.8425 430.154 27.4563C430.154 30.07 432.274 32.1889 434.89 32.1889Z" fill="#F55F44"/>
<path opacity="0.05" d="M443.073 11.1728C443.054 12.4094 442.68 13.6147 441.996 14.6452C441.312 15.6758 440.346 16.4884 439.213 16.9863C438.08 17.4843 436.828 17.6467 435.606 17.4543C434.383 17.2619 433.242 16.7227 432.317 15.9009C431.392 15.0791 430.723 14.0091 430.389 12.8183C430.055 11.6275 430.07 10.3658 430.432 9.18332C430.795 8.00083 431.49 6.94723 432.434 6.14779C433.378 5.34834 434.532 4.83666 435.759 4.67358C438.605 6.33241 441.091 8.54194 443.073 11.1728Z" fill="#F55F44"/>
<path opacity="0.05" d="M443.545 40.0768C441.434 43.079 438.674 45.5682 435.47 47.3601C432.265 49.152 428.699 50.2006 425.034 50.4283C425.004 50.0916 424.987 49.7489 424.987 49.4062C424.987 47.2534 425.587 45.1431 426.717 43.3106C427.848 41.4781 429.466 39.9956 431.39 39.0281C433.315 38.0607 435.47 37.6465 437.616 37.8316C439.763 38.0168 441.815 38.7941 443.545 40.0768Z" fill="#F55F44"/>
<path opacity="0.25" d="M427.352 206.688C429.017 206.688 430.367 205.339 430.367 203.674C430.367 202.01 429.017 200.661 427.352 200.661C425.686 200.661 424.336 202.01 424.336 203.674C424.336 205.339 425.686 206.688 427.352 206.688Z" fill="#535461"/>
<path opacity="0.25" d="M25.3108 285.86C26.9762 285.86 28.3261 284.511 28.3261 282.847C28.3261 281.183 26.9762 279.833 25.3108 279.833C23.6455 279.833 22.2955 281.183 22.2955 282.847C22.2955 284.511 23.6455 285.86 25.3108 285.86Z" fill="#535461"/>
<path opacity="0.25" d="M543.825 302.995C545.49 302.995 546.84 301.646 546.84 299.981C546.84 298.317 545.49 296.968 543.825 296.968C542.16 296.968 540.81 298.317 540.81 299.981C540.81 301.646 542.16 302.995 543.825 302.995Z" fill="#535461"/>
<path opacity="0.25" d="M170.708 160.212C172.373 160.212 173.723 158.863 173.723 157.199C173.723 155.535 172.373 154.186 170.708 154.186C169.042 154.186 167.692 155.535 167.692 157.199C167.692 158.863 169.042 160.212 170.708 160.212Z" fill="#535461"/>
<path opacity="0.25" d="M160.804 90.9304C162.47 90.9304 163.82 89.5813 163.82 87.9171C163.82 86.2529 162.47 84.9038 160.804 84.9038C159.139 84.9038 157.789 86.2529 157.789 87.9171C157.789 89.5813 159.139 90.9304 160.804 90.9304Z" fill="#535461"/>
<path opacity="0.25" d="M75.5423 228.2C77.2076 228.2 78.5576 226.851 78.5576 225.187C78.5576 223.523 77.2076 222.174 75.5423 222.174C73.877 222.174 72.527 223.523 72.527 225.187C72.527 226.851 73.877 228.2 75.5423 228.2Z" fill="#535461"/>
<path opacity="0.25" d="M502.066 228.726H499.382V226.05H498.288V228.726H495.604V229.825H498.288V232.502H499.382V229.825H502.066V228.726Z" fill="#535461"/>
<path opacity="0.25" d="M547 135.964H544.316V133.288H543.222V135.964H540.538V137.063H543.222V139.74H544.316V137.063H547V135.964Z" fill="#535461"/>
<path opacity="0.25" d="M355.658 84.1414H352.974V81.459H351.88V84.1414H349.196V85.2345H351.88V87.9169H352.974V85.2345H355.658V84.1414Z" fill="#535461"/>
<path opacity="0.25" d="M472.782 213.666H470.098V210.989H469.004V213.666H466.326V214.764H469.004V217.441H470.098V214.764H472.782V213.666Z" fill="#535461"/>
<path opacity="0.25" d="M374.601 302.74H371.923V300.064H370.829V302.74H368.145V303.839H370.829V306.516H371.923V303.839H374.601V302.74Z" fill="#535461"/>
<path opacity="0.25" d="M99.8775 118.995H97.1933V116.319H96.0995V118.995H93.4153V120.088H96.0995V122.771H97.1933V120.088H99.8775V118.995Z" fill="#535461"/>
<path opacity="0.25" d="M6.46221 153.855H3.778V151.178H2.68421V153.855H0V154.948H2.68421V157.63H3.778V154.948H6.46221V153.855Z" fill="#535461"/>
<path opacity="0.25" d="M136.907 263.586H134.222V260.903H133.129V263.586H130.45V264.679H133.129V267.361H134.222V264.679H136.907V263.586Z" fill="#535461"/>
<path d="M456.204 440.779C460.723 440.779 464.387 437.117 464.387 432.601C464.387 428.085 460.723 424.424 456.204 424.424C451.685 424.424 448.021 428.085 448.021 432.601C448.021 437.117 451.685 440.779 456.204 440.779Z" fill="url(#paint21_linear)"/>
<g opacity="0.4">
<path opacity="0.4" d="M159.019 205.801C158.02 204.481 156.768 203.372 155.336 202.54C153.693 201.584 151.852 201.02 149.956 200.891C148.06 200.761 146.159 201.07 144.402 201.794C142.644 202.518 141.077 203.636 139.823 205.063C138.568 206.489 137.659 208.186 137.167 210.02C136.674 211.855 136.612 213.778 136.984 215.641C137.356 217.504 138.152 219.256 139.311 220.761C140.47 222.266 141.961 223.484 143.668 224.32C145.374 225.157 147.251 225.589 149.151 225.583C149.411 225.583 149.677 225.583 149.932 225.583C152.16 225.44 154.307 224.698 156.147 223.434C157.987 222.171 159.451 220.433 160.382 218.406C161.314 216.378 161.679 214.137 161.439 211.919C161.199 209.701 160.363 207.589 159.019 205.807V205.801Z" fill="url(#paint22_linear)"/>
</g>
<path opacity="0.2" d="M160.834 213.246C160.834 216.216 159.702 219.075 157.668 221.24C155.634 223.406 152.85 224.716 149.884 224.903C149.642 224.903 149.394 224.903 149.145 224.903C147.353 224.902 145.586 224.488 143.979 223.695C142.373 222.901 140.97 221.75 139.88 220.328C138.79 218.907 138.041 217.254 137.692 215.498C137.343 213.741 137.403 211.928 137.867 210.198C138.331 208.469 139.186 206.869 140.368 205.522C141.549 204.176 143.024 203.118 144.68 202.432C146.335 201.747 148.126 201.45 149.914 201.566C151.702 201.682 153.44 202.207 154.993 203.101C156.346 203.887 157.529 204.933 158.475 206.18C160.016 208.213 160.845 210.696 160.834 213.246Z" fill="#6C63FF"/>
<path opacity="0.1" d="M146.266 205.837C145.652 206.095 145.059 206.402 144.492 206.753C144.121 206.955 143.802 207.24 143.558 207.586C143.445 207.762 143.386 207.967 143.386 208.177C143.386 208.386 143.445 208.591 143.558 208.768C143.73 208.936 143.936 209.066 144.163 209.147C144.389 209.229 144.631 209.26 144.871 209.24C145.299 209.328 145.743 209.301 146.158 209.164C146.573 209.026 146.945 208.781 147.236 208.454L148.241 207.545C148.589 207.225 148.974 206.794 148.832 206.363C148.753 206.2 148.633 206.06 148.484 205.956C148.334 205.853 148.161 205.789 147.981 205.772C147.117 205.603 146.221 205.761 145.468 206.215" fill="#F55F44"/>
<path opacity="0.1" d="M142.068 218.469C142.408 218.469 142.683 218.194 142.683 217.854C142.683 217.515 142.408 217.24 142.068 217.24C141.729 217.24 141.453 217.515 141.453 217.854C141.453 218.194 141.729 218.469 142.068 218.469Z" fill="#F55F44"/>
<path opacity="0.1" d="M154.579 216.218C155.826 216.218 156.837 215.207 156.837 213.961C156.837 212.714 155.826 211.704 154.579 211.704C153.331 211.704 152.32 212.714 152.32 213.961C152.32 215.207 153.331 216.218 154.579 216.218Z" fill="#F55F44"/>
<path opacity="0.1" d="M158.475 206.233C158.467 206.821 158.291 207.395 157.966 207.886C157.642 208.378 157.183 208.765 156.644 209.003C156.106 209.241 155.51 209.32 154.928 209.229C154.346 209.139 153.802 208.883 153.362 208.493C152.921 208.103 152.602 207.594 152.442 207.027C152.282 206.461 152.288 205.86 152.46 205.297C152.632 204.734 152.962 204.233 153.411 203.852C153.86 203.471 154.409 203.227 154.993 203.148C156.346 203.936 157.53 204.984 158.475 206.233Z" fill="#F55F44"/>
<path opacity="0.1" d="M158.706 219.976C157.701 221.406 156.386 222.592 154.86 223.446C153.334 224.3 151.636 224.8 149.89 224.909C149.89 224.75 149.89 224.584 149.89 224.419C149.887 223.389 150.171 222.378 150.711 221.5C151.251 220.623 152.026 219.914 152.947 219.452C153.869 218.99 154.901 218.795 155.928 218.887C156.954 218.98 157.935 219.357 158.759 219.976H158.706Z" fill="#F55F44"/>
<g opacity="0.1">
<path opacity="0.1" d="M291.828 119.379H230.931V121.743H291.828V119.379Z" fill="black"/>
</g>
<defs>
<linearGradient id="paint0_linear" x1="262" y1="410.073" x2="262" y2="28.39" gradientUnits="userSpaceOnUse">
<stop stop-color="#808080" stop-opacity="0.25"/>
<stop offset="0.54" stop-color="#808080" stop-opacity="0.12"/>
<stop offset="1" stop-color="#808080" stop-opacity="0.1"/>
</linearGradient>
<linearGradient id="paint1_linear" x1="204.509" y1="364.667" x2="204.509" y2="401.671" gradientUnits="userSpaceOnUse">
<stop stop-color="#E0E0E0"/>
<stop offset="0.31" stop-color="#FCCC63"/>
<stop offset="0.77" stop-color="#F55F44"/>
</linearGradient>
<linearGradient id="paint2_linear" x1="5982.92" y1="23200.1" x2="5982.92" y2="25517.3" gradientUnits="userSpaceOnUse">
<stop stop-color="#E0E0E0"/>
<stop offset="0.31" stop-color="#FCCC63"/>
<stop offset="0.77" stop-color="#F55F44"/>
</linearGradient>
<linearGradient id="paint3_linear" x1="6651.31" y1="23200.1" x2="6651.31" y2="25517.3" gradientUnits="userSpaceOnUse">
<stop stop-color="#E0E0E0"/>
<stop offset="0.31" stop-color="#FCCC63"/>
<stop offset="0.77" stop-color="#F55F44"/>
</linearGradient>
<linearGradient id="paint4_linear" x1="7730.16" y1="23200.1" x2="7730.16" y2="25517.3" gradientUnits="userSpaceOnUse">
<stop stop-color="#E0E0E0"/>
<stop offset="0.31" stop-color="#FCCC63"/>
<stop offset="0.77" stop-color="#F55F44"/>
</linearGradient>
<linearGradient id="paint5_linear" x1="210850" y1="92718.6" x2="210850" y2="72003.7" gradientUnits="userSpaceOnUse">
<stop stop-color="#808080" stop-opacity="0.25"/>
<stop offset="0.54" stop-color="#808080" stop-opacity="0.12"/>
<stop offset="1" stop-color="#808080" stop-opacity="0.1"/>
</linearGradient>
<linearGradient id="paint6_linear" x1="161.236" y1="346.54" x2="161.236" y2="432.601" gradientUnits="userSpaceOnUse">
<stop stop-color="#F2F2F2"/>
<stop offset="0.31" stop-color="#E6E6E6"/>
<stop offset="0.77" stop-color="#CCCCCC"/>
</linearGradient>
<linearGradient id="paint7_linear" x1="25797.1" y1="57553.1" x2="25797.1" y2="72584.3" gradientUnits="userSpaceOnUse">
<stop stop-color="#F2F2F2"/>
<stop offset="0.31" stop-color="#E6E6E6"/>
<stop offset="0.77" stop-color="#CCCCCC"/>
</linearGradient>
<linearGradient id="paint8_linear" x1="56552" y1="57553.1" x2="56552" y2="72584.3" gradientUnits="userSpaceOnUse">
<stop stop-color="#F2F2F2"/>
<stop offset="0.31" stop-color="#E6E6E6"/>
<stop offset="0.77" stop-color="#CCCCCC"/>
</linearGradient>
<linearGradient id="paint9_linear" x1="51327.8" y1="53789.6" x2="51327.8" y2="66325.4" gradientUnits="userSpaceOnUse">
<stop stop-color="#F2F2F2"/>
<stop offset="0.31" stop-color="#E6E6E6"/>
<stop offset="0.77" stop-color="#CCCCCC"/>
</linearGradient>
<linearGradient id="paint10_linear" x1="49733.8" y1="54895.8" x2="49733.8" y2="65170.4" gradientUnits="userSpaceOnUse">
<stop stop-color="#F2F2F2"/>
<stop offset="0.31" stop-color="#E6E6E6"/>
<stop offset="0.77" stop-color="#CCCCCC"/>
</linearGradient>
<linearGradient id="paint11_linear" x1="57544.9" y1="35670" x2="57544.9" y2="39393" gradientUnits="userSpaceOnUse">
<stop stop-color="#F2F2F2"/>
<stop offset="0.31" stop-color="#E6E6E6"/>
<stop offset="0.77" stop-color="#CCCCCC"/>
</linearGradient>
<linearGradient id="paint12_linear" x1="69462.9" y1="41326.2" x2="69462.9" y2="46541.3" gradientUnits="userSpaceOnUse">
<stop stop-color="#F2F2F2"/>
<stop offset="0.31" stop-color="#E6E6E6"/>
<stop offset="0.77" stop-color="#CCCCCC"/>
</linearGradient>
<linearGradient id="paint13_linear" x1="30956.1" y1="41350" x2="30956.1" y2="46568.2" gradientUnits="userSpaceOnUse">
<stop stop-color="#F2F2F2"/>
<stop offset="0.31" stop-color="#E6E6E6"/>
<stop offset="0.77" stop-color="#CCCCCC"/>
</linearGradient>
<linearGradient id="paint14_linear" x1="11635.4" y1="10083.4" x2="11635.4" y2="9661.61" gradientUnits="userSpaceOnUse">
<stop stop-color="#808080" stop-opacity="0.25"/>
<stop offset="0.54" stop-color="#808080" stop-opacity="0.12"/>
<stop offset="1" stop-color="#808080" stop-opacity="0.1"/>
</linearGradient>
<linearGradient id="paint15_linear" x1="10812.7" y1="8993.39" x2="10812.7" y2="9355.61" gradientUnits="userSpaceOnUse">
<stop stop-color="#F2F2F2"/>
<stop offset="0.31" stop-color="#E6E6E6"/>
<stop offset="0.77" stop-color="#CCCCCC"/>
</linearGradient>
<linearGradient id="paint16_linear" x1="13741.4" y1="13280.8" x2="13741.4" y2="12779.3" gradientUnits="userSpaceOnUse">
<stop stop-color="#808080" stop-opacity="0.25"/>
<stop offset="0.54" stop-color="#808080" stop-opacity="0.12"/>
<stop offset="1" stop-color="#808080" stop-opacity="0.1"/>
</linearGradient>
<linearGradient id="paint17_linear" x1="456.204" y1="424.424" x2="456.204" y2="440.779" gradientUnits="userSpaceOnUse">
<stop stop-color="#F2F2F2"/>
<stop offset="0.31" stop-color="#E0E0E0"/>
<stop offset="0.77" stop-color="#B3B3B3"/>
</linearGradient>
<linearGradient id="paint18_linear" x1="2883.2" y1="12958" x2="2883.2" y2="12352.3" gradientUnits="userSpaceOnUse">
<stop stop-color="#808080" stop-opacity="0.25"/>
<stop offset="0.54" stop-color="#808080" stop-opacity="0.12"/>
<stop offset="1" stop-color="#808080" stop-opacity="0.1"/>
</linearGradient>
<linearGradient id="paint19_linear" x1="2757.48" y1="11827" x2="2757.48" y2="12379.7" gradientUnits="userSpaceOnUse">
<stop stop-color="#F2F2F2"/>
<stop offset="0.31" stop-color="#E6E6E6"/>
<stop offset="0.77" stop-color="#CCCCCC"/>
</linearGradient>
<linearGradient id="paint20_linear" x1="44676" y1="7929.72" x2="44676" y2="3370.89" gradientUnits="userSpaceOnUse">
<stop stop-color="#808080" stop-opacity="0.25"/>
<stop offset="0.54" stop-color="#808080" stop-opacity="0.12"/>
<stop offset="1" stop-color="#808080" stop-opacity="0.1"/>
</linearGradient>
<linearGradient id="paint21_linear" x1="13075.7" y1="12172.5" x2="13075.7" y2="12625.2" gradientUnits="userSpaceOnUse">
<stop stop-color="#F2F2F2"/>
<stop offset="0.31" stop-color="#E6E6E6"/>
<stop offset="0.77" stop-color="#CCCCCC"/>
</linearGradient>
<linearGradient id="paint22_linear" x1="9787.36" y1="11245.8" x2="9787.36" y2="10211.5" gradientUnits="userSpaceOnUse">
<stop stop-color="#808080" stop-opacity="0.25"/>
<stop offset="0.54" stop-color="#808080" stop-opacity="0.12"/>
<stop offset="1" stop-color="#808080" stop-opacity="0.1"/>
</linearGradient>
</defs>
</svg>
