<svg width="121" height="121" viewBox="0 0 121 121" fill="none" xmlns="http://www.w3.org/2000/svg">
<rect x="1.5" y="1.5" width="118" height="118" fill="white" stroke="#EB008B" stroke-width="3"/>
<path d="M43.3333 71.5834H39.1667C39.1667 64.6798 44.7631 59.0834 51.6667 59.0834C58.5702 59.0834 64.1667 64.6798 64.1667 71.5834H60C60 66.981 56.269 63.25 51.6667 63.25C47.0643 63.25 43.3333 66.981 43.3333 71.5834ZM68.3208 64.1042L62.6833 58.4792L65.625 55.525L68.3167 58.2167L77.275 49.275L80.2167 52.225L68.3167 64.1L68.3208 64.1042ZM51.6667 57C47.0643 57 43.3333 53.2691 43.3333 48.6667C43.3333 44.0643 47.0643 40.3334 51.6667 40.3334C56.269 40.3334 60 44.0643 60 48.6667C59.9943 53.2667 56.2667 56.9943 51.6667 57ZM51.6667 44.5C49.3904 44.5023 47.5373 46.331 47.5047 48.607C47.472 50.883 49.272 52.764 51.5473 52.8315C53.8225 52.8991 55.7309 51.1282 55.8333 48.8542V49.6875V48.6667C55.8333 46.3655 53.9679 44.5 51.6667 44.5Z" fill="#EB008B"/>
</svg>
