<svg width="84" height="80" viewBox="0 0 84 80" fill="none" xmlns="http://www.w3.org/2000/svg">
<path d="M22.9167 79.1687C16.4755 79.1417 10.8053 74.9165 8.93746 68.752H0V60.4187H8.93746C11.083 53.2227 18.3419 48.8322 25.7113 50.273C33.0807 51.7139 38.1514 58.5151 37.4286 65.9892C36.7057 73.4633 30.4257 79.1668 22.9167 79.1687ZM22.9167 58.3354C19.4649 58.3354 16.6667 61.1336 16.6667 64.5854C16.6667 68.0371 19.4649 70.8354 22.9167 70.8354C26.3685 70.8354 29.1667 68.0371 29.1667 64.5854C29.1667 61.1336 26.3685 58.3354 22.9167 58.3354ZM83.3334 68.752H41.6667V60.4187H83.3334V68.752ZM60.4167 54.1687C52.9078 54.1668 46.6277 48.4633 45.9049 40.9892C45.182 33.5151 50.2527 26.7139 57.6221 25.273C64.9916 23.8322 72.2505 28.2227 74.3959 35.4187H83.3334V43.752H74.3959C72.5281 49.9165 66.8579 54.1417 60.4167 54.1687ZM60.4167 33.3354C56.9649 33.3354 54.1667 36.1336 54.1667 39.5854C54.1667 43.0371 56.9649 45.8354 60.4167 45.8354C63.8685 45.8354 66.6667 43.0371 66.6667 39.5854C66.6667 36.1336 63.8685 33.3354 60.4167 33.3354ZM41.6667 43.752H0V35.4187H41.6667V43.752ZM31.25 29.1687C23.7411 29.1668 17.461 23.4633 16.7382 15.9892C16.0153 8.5151 21.086 1.7139 28.4555 0.273002C35.8249 -1.16783 43.0838 3.2227 45.2292 10.4187H83.3334V18.752H45.2292C43.3603 24.9157 37.6908 29.1404 31.25 29.1687ZM31.25 8.3354C27.8416 8.34 25.0654 11.0746 25.0093 14.4826C24.9533 17.8906 27.6382 20.715 31.0446 20.8317C34.451 20.9483 37.3228 18.3142 37.5 14.9104V16.1187V14.5854C37.5 11.1336 34.7018 8.3354 31.25 8.3354ZM12.5 18.752H0V10.4187H12.5V18.752Z" fill="#64A487"/>
</svg>
