<svg width="121" height="121" viewBox="0 0 121 121" fill="none" xmlns="http://www.w3.org/2000/svg">
<rect x="1.5" y="1.5" width="118" height="118" fill="white" stroke="#B23336" stroke-width="3"/>
<path d="M72.5 81.8334H47.5C45.1988 81.8334 43.3333 79.9679 43.3333 77.6667V44.3334C43.3333 42.0322 45.1988 40.1667 47.5 40.1667H62.0833C62.102 40.1643 62.1209 40.1643 62.1396 40.1667H62.1521C62.1717 40.1729 62.192 40.1771 62.2125 40.1792C62.3962 40.191 62.5776 40.2267 62.7521 40.2855H62.7833H62.8146H62.8396C62.878 40.3124 62.9142 40.3424 62.9479 40.3751C63.1749 40.4759 63.3817 40.6171 63.5583 40.7917L76.0583 53.2917C76.2329 53.4684 76.3741 53.6752 76.475 53.9022C76.4937 53.948 76.5083 53.9917 76.5229 54.0397L76.5437 54.098C76.6019 54.2717 76.6362 54.4525 76.6458 54.6355C76.6476 54.6562 76.6525 54.6766 76.6604 54.6959V54.7084C76.6638 54.7221 76.6659 54.736 76.6666 54.7501V77.6667C76.6666 78.7718 76.2277 79.8316 75.4463 80.613C74.6649 81.3944 73.605 81.8334 72.5 81.8334ZM62.0833 44.3334V54.7501H72.5L62.0833 44.3334Z" fill="#B23336"/>
</svg>
