<svg width="51" height="51" viewBox="0 0 51 51" fill="none" xmlns="http://www.w3.org/2000/svg">
<path d="M25.5011 0C11.4359 0 0.00219818 11.4444 0.00219818 25.5C0.00219818 30.1818 1.27714 34.7412 3.70464 38.7192L0.0531835 49.6638C-0.0692062 50.031 0.0226172 50.4288 0.297963 50.7042C0.491757 50.898 0.756956 51 1.02215 51C1.13433 51 1.23637 50.9898 1.34855 50.949L12.2824 47.3076C16.2705 49.725 20.8297 51 25.5011 51C39.5663 51 51 39.5658 51 25.5C51 11.4444 39.5663 0 25.5011 0ZM41.8204 35.8224C41.8204 36.7098 41.4532 37.587 40.8209 38.2194L38.1689 40.8408C37.5366 41.4732 36.6798 41.82 35.8026 41.82H35.67C21.4213 41.208 9.79375 29.58 9.1818 15.3408C9.14103 14.4126 9.49799 13.4946 10.161 12.8316L12.7823 10.1796C13.4146 9.54718 14.2918 9.18 15.1894 9.18H16.1685C17.5658 9.18 18.8408 10.0572 19.3304 11.373L21.6558 17.544C22.1046 18.7476 21.8293 20.1246 20.9419 21.063L19.9832 22.0728C19.5445 22.5318 19.4935 23.2356 19.8506 23.7558C21.0337 25.4694 23.5632 28.7028 27.2554 31.1916C27.7654 31.5282 28.459 31.467 28.9078 31.0386L29.9481 30.0594C30.8763 29.172 32.2532 28.8966 33.4567 29.3454L39.6275 31.671C40.9432 32.1708 41.8204 33.4356 41.8204 34.833V35.8224Z" fill="#233946"/>
</svg>
